ffmpeg started on 2016-12-07 at 21:28:33
Report written to "Output/x264/results/ffmpeg/sintelslower2500k.log"
Command line:
Tools/ffmpeg/ffmpeg -benchmark -y -i Input/y4m/sintel.y4m -c:v libx264 -preset slower -b:v 2500k -an Output/x264/encoded/sintelslower2500k.mkv
ffmpeg version N-82227-gdb23fde Copyright (c) 2000-2016 the FFmpeg developers
  built with gcc 5.4.0 (Ubuntu 5.4.0-6ubuntu1~16.04.2) 20160609
  configuration: --prefix=/home/jaroslav/ffmpeg_build --pkg-config-flags=--static --extra-cflags=-I/home/jaroslav/ffmpeg_build/include --extra-ldflags=-L/home/jaroslav/ffmpeg_build/lib --bindir=/home/jaroslav/bin --enable-gpl --enable-libass --enable-libfdk-aac --enable-libfreetype --enable-libmp3lame --enable-libopus --enable-libtheora --enable-libvorbis --enable-libvpx --enable-libx264 --enable-libx265 --enable-nvenc --enable-libmfx --enable-libxvid --enable-libgsm --enable-libopencore-amrnb --enable-version3 --enable-nonfree
  libavutil      55. 35.100 / 55. 35.100
  libavcodec     57. 66.101 / 57. 66.101
  libavformat    57. 57.100 / 57. 57.100
  libavdevice    57.  2.100 / 57.  2.100
  libavfilter     6. 66.100 /  6. 66.100
  libswscale      4.  3.100 /  4.  3.100
  libswresample   2.  4.100 /  2.  4.100
  libpostproc    54.  2.100 / 54.  2.100
Input #0, yuv4mpegpipe, from 'Input/y4m/sintel.y4m':
  Duration: 00:00:20.83, start: 0.000000, bitrate: 2057307 kb/s
    Stream #0:0: Video: rawvideo (I420 / 0x30323449), yuv420p(progressive), 4096x1744, SAR 1:1 DAR 256:109, 24 fps, 24 tbr, 24 tbn, 24 tbc
[libx264 @ 0x3ffb1c0] using SAR=1/1
[libx264 @ 0x3ffb1c0] DPB size (8 frames, 223232 mbs) > level limit (6 frames, 184320 mbs)
[libx264 @ 0x3ffb1c0] using cpu capabilities: MMX2 SSE2Fast SSSE3 SSE4.2 AVX FMA3 AVX2 LZCNT BMI2
[libx264 @ 0x3ffb1c0] profile High, level 5.2
[libx264 @ 0x3ffb1c0] 264 - core 148 - H.264/MPEG-4 AVC codec - Copyleft 2003-2016 - http://www.videolan.org/x264.html - options: cabac=1 ref=8 deblock=1:0:0 analyse=0x3:0x133 me=umh subme=9 psy=1 psy_rd=1.00:0.00 mixed_ref=1 me_range=16 chroma_me=1 trellis=2 8x8dct=1 cqm=0 deadzone=21,11 fast_pskip=1 chroma_qp_offset=-2 threads=6 lookahead_threads=1 sliced_threads=0 nr=0 decimate=1 interlaced=0 bluray_compat=0 constrained_intra=0 bframes=3 b_pyramid=2 b_adapt=2 b_bias=0 direct=3 weightb=1 open_gop=0 weightp=2 keyint=250 keyint_min=24 scenecut=40 intra_refresh=0 rc_lookahead=60 rc=abr mbtree=1 bitrate=2500 ratetol=1.0 qcomp=0.60 qpmin=0 qpmax=69 qpstep=4 ip_ratio=1.40 aq=1:1.00
Output #0, matroska, to 'Output/x264/encoded/sintelslower2500k.mkv':
  Metadata:
    encoder         : Lavf57.57.100
    Stream #0:0: Video: h264 (libx264) (H264 / 0x34363248), yuv420p, 4096x1744 [SAR 1:1 DAR 256:109], q=-1--1, 2500 kb/s, 24 fps, 1k tbn, 24 tbc
    Metadata:
      encoder         : Lavc57.66.101 libx264
    Side data:
      cpb: bitrate max/min/avg: 0/0/2500000 buffer size: 0 vbv_delay: -1
Stream mapping:
  Stream #0:0 -> #0:0 (rawvideo (native) -> h264 (libx264))
Press [q] to stop, [?] for help
frame=   10 fps=0.0 q=0.0 size=       0kB time=00:00:00.00 bitrate=N/A speed=   0x    frame=   19 fps= 18 q=0.0 size=       0kB time=00:00:00.00 bitrate=N/A speed=   0x    frame=   24 fps= 15 q=0.0 size=       0kB time=00:00:00.00 bitrate=N/A speed=   0x    frame=   33 fps= 16 q=0.0 size=       0kB time=00:00:00.00 bitrate=N/A speed=   0x    frame=   42 fps= 16 q=0.0 size=       0kB time=00:00:00.00 bitrate=N/A speed=   0x    frame=   43 fps=6.9 q=0.0 size=       0kB time=00:00:00.00 bitrate=N/A speed=   0x    frame=   44 fps=4.4 q=0.0 size=       0kB time=00:00:00.00 bitrate=N/A speed=   0x    frame=   45 fps=3.7 q=0.0 size=       0kB time=00:00:00.00 bitrate=N/A speed=   0x    frame=   54 fps=4.2 q=0.0 size=       0kB time=00:00:00.00 bitrate=N/A speed=   0x    frame=   63 fps=4.7 q=0.0 size=       0kB time=00:00:00.00 bitrate=N/A speed=   0x    frame=   67 fps=3.3 q=0.0 size=       0kB time=00:00:00.00 bitrate=N/A speed=   0x    frame=   71 fps=3.4 q=36.0 size=       1kB time=-00:00:00.08 bitrate=N/A speed=N/A    frame=   74 fps=3.4 q=40.0 size=       1kB time=00:00:00.04 bitrate= 136.9kbits/s speed=0.002x    frame=   76 fps=3.4 q=53.0 size=       1kB time=00:00:00.12 bitrate=  46.7kbits/s speed=0.00564x    frame=   77 fps=3.3 q=49.0 size=       1kB time=00:00:00.16 bitrate=  35.0kbits/s speed=0.00729x    frame=   80 fps=3.3 q=54.0 size=       1kB time=00:00:00.29 bitrate=  20.1kbits/s speed=0.0121x    frame=   84 fps=3.3 q=54.0 size=       1kB time=00:00:00.45 bitrate=  12.8kbits/s speed=0.0183x    frame=   85 fps=3.3 q=54.0 size=       1kB time=00:00:00.50 bitrate=  11.8kbits/s speed=0.0195x    frame=   86 fps=3.2 q=54.0 size=       1kB time=00:00:00.54 bitrate=  10.8kbits/s speed=0.0203x    frame=   91 fps=3.3 q=54.0 size=       1kB time=00:00:00.75 bitrate=   7.8kbits/s speed=0.0275x    frame=   92 fps=3.2 q=54.0 size=       1kB time=00:00:00.79 bitrate=   7.4kbits/s speed=0.0277x    frame=   94 fps=3.2 q=54.0 size=       1kB time=00:00:00.87 bitrate=   6.7kbits/s speed=0.0299x    frame=   96 fps=3.2 q=54.0 size=       1kB time=00:00:00.95 bitrate=   6.1kbits/s speed=0.0321x    frame=   98 fps=3.2 q=54.0 size=       1kB time=00:00:01.04 bitrate=   5.6kbits/s speed=0.0339x    frame=  100 fps=3.2 q=54.0 size=       1kB time=00:00:01.12 bitrate=   5.2kbits/s speed=0.0361x    frame=  103 fps=3.2 q=54.0 size=       1kB time=00:00:01.25 bitrate=   4.7kbits/s speed=0.0389x    frame=  105 fps=3.2 q=54.0 size=       1kB time=00:00:01.33 bitrate=   4.4kbits/s speed=0.0408x    frame=  107 fps=3.2 q=54.0 size=       1kB time=00:00:01.41 bitrate=   4.2kbits/s speed=0.0421x    frame=  109 fps=3.2 q=54.0 size=       1kB time=00:00:01.50 bitrate=   3.9kbits/s speed=0.0436x    frame=  111 fps=3.2 q=54.0 size=       1kB time=00:00:01.58 bitrate=   3.7kbits/s speed=0.0454x    frame=  114 fps=3.2 q=54.0 size=       1kB time=00:00:01.70 bitrate=   3.4kbits/s speed=0.0482x    frame=  116 fps=3.2 q=53.0 size=       1kB time=00:00:01.79 bitrate=   3.3kbits/s speed=0.0496x    frame=  118 fps=3.2 q=53.0 size=       1kB time=00:00:01.87 bitrate=   3.1kbits/s speed=0.051x    frame=  120 fps=3.2 q=53.0 size=       1kB time=00:00:01.95 bitrate=   3.0kbits/s speed=0.0525x    frame=  122 fps=3.2 q=53.0 size=       1kB time=00:00:02.04 bitrate=   2.9kbits/s speed=0.0536x    frame=  124 fps=3.2 q=53.0 size=       1kB time=00:00:02.12 bitrate=   2.8kbits/s speed=0.0543x    frame=  126 fps=3.2 q=53.0 size=       1kB time=00:00:02.20 bitrate=   2.7kbits/s speed=0.0555x    frame=  128 fps=3.2 q=53.0 size=       1kB time=00:00:02.29 bitrate=   2.6kbits/s speed=0.0566x    frame=  130 fps=3.1 q=53.0 size=       1kB time=00:00:02.37 bitrate=   2.5kbits/s speed=0.0571x    frame=  132 fps=3.1 q=53.0 size=       1kB time=00:00:02.45 bitrate=   2.4kbits/s speed=0.0583x    frame=  133 fps=3.1 q=53.0 size=       1kB time=00:00:02.50 bitrate=   2.4kbits/s speed=0.0585x    frame=  135 fps=3.1 q=53.0 size=       1kB time=00:00:02.58 bitrate=   2.3kbits/s speed=0.0595x    frame=  137 fps=3.1 q=53.0 size=       1kB time=00:00:02.66 bitrate=   2.2kbits/s speed=0.0594x    frame=  139 fps=3.1 q=53.0 size=       1kB time=00:00:02.75 bitrate=   2.1kbits/s speed=0.0605x    frame=  142 fps=3.1 q=53.0 size=       1kB time=00:00:02.87 bitrate=   2.0kbits/s speed=0.0623x    frame=  143 fps=3.0 q=53.0 size=       1kB time=00:00:02.91 bitrate=   2.0kbits/s speed=0.062x    frame=  144 fps=3.0 q=53.0 size=       1kB time=00:00:02.95 bitrate=   2.0kbits/s speed=0.0622x    frame=  146 fps=3.0 q=53.0 size=       1kB time=00:00:03.04 bitrate=   1.9kbits/s speed=0.063x    frame=  148 fps=3.0 q=53.0 size=       1kB time=00:00:03.12 bitrate=   1.9kbits/s speed=0.064x    frame=  149 fps=3.0 q=53.0 size=       1kB time=00:00:03.16 bitrate=   1.9kbits/s speed=0.0638x    frame=  151 fps=3.0 q=53.0 size=       1kB time=00:00:03.25 bitrate=   1.8kbits/s speed=0.0643x    frame=  153 fps=3.0 q=53.0 size=       1kB time=00:00:03.33 bitrate=   1.8kbits/s speed=0.0652x    frame=  154 fps=3.0 q=53.0 size=       1kB time=00:00:03.37 bitrate=   1.7kbits/s speed=0.0653x    frame=  155 fps=3.0 q=53.0 size=       1kB time=00:00:03.41 bitrate=   1.7kbits/s speed=0.0654x    frame=  156 fps=3.0 q=53.0 size=       1kB time=00:00:03.45 bitrate=   1.7kbits/s speed=0.0655x    frame=  157 fps=2.9 q=53.0 size=       1kB time=00:00:03.50 bitrate=   1.7kbits/s speed=0.0657x    frame=  158 fps=2.9 q=53.0 size=       1kB time=00:00:03.54 bitrate=   1.7kbits/s speed=0.0656x    frame=  160 fps=2.9 q=53.0 size=       1kB time=00:00:03.62 bitrate=   1.6kbits/s speed=0.0665x    frame=  161 fps=2.9 q=53.0 size=       1kB time=00:00:03.66 bitrate=   1.6kbits/s speed=0.0665x    frame=  163 fps=2.9 q=53.0 size=       1kB time=00:00:03.75 bitrate=   1.6kbits/s speed=0.0672x    frame=  165 fps=2.9 q=53.0 size=       1kB time=00:00:03.83 bitrate=   1.5kbits/s speed=0.0676x    frame=  167 fps=2.9 q=53.0 size=       1kB time=00:00:03.91 bitrate=   1.5kbits/s speed=0.0678x    frame=  170 fps=2.9 q=53.0 size=       1kB time=00:00:04.04 bitrate=   1.5kbits/s speed=0.0692x    frame=  172 fps=2.9 q=53.0 size=       1kB time=00:00:04.12 bitrate=   1.4kbits/s speed=0.0699x    frame=  173 fps=2.9 q=53.0 size=       1kB time=00:00:04.16 bitrate=   1.4kbits/s speed=0.0695x    frame=  177 fps=2.9 q=53.0 size=       1kB time=00:00:04.33 bitrate=   1.4kbits/s speed=0.0714x    frame=  179 fps=2.9 q=53.0 size=       1kB time=00:00:04.41 bitrate=   1.3kbits/s speed=0.072x    frame=  181 fps=2.9 q=50.0 size=       1kB time=00:00:04.50 bitrate=   1.3kbits/s speed=0.0727x    frame=  183 fps=2.9 q=53.0 size=       1kB time=00:00:04.58 bitrate=   1.3kbits/s speed=0.0732x    frame=  188 fps=3.0 q=53.0 size=    1662kB time=00:00:04.79 bitrate=2840.4kbits/s speed=0.0759x    frame=  192 fps=3.0 q=53.0 size=    1662kB time=00:00:04.95 bitrate=2745.4kbits/s speed=0.0777x    frame=  195 fps=3.0 q=53.0 size=    1662kB time=00:00:05.08 bitrate=2677.9kbits/s speed=0.0788x    frame=  196 fps=3.0 q=53.0 size=    1662kB time=00:00:05.12 bitrate=2655.9kbits/s speed=0.0785x    frame=  198 fps=3.0 q=53.0 size=    1662kB time=00:00:05.20 bitrate=2613.6kbits/s speed=0.0789x    frame=  200 fps=3.0 q=53.0 size=    1662kB time=00:00:05.29 bitrate=2572.1kbits/s speed=0.0791x    frame=  202 fps=3.0 q=53.0 size=    1662kB time=00:00:05.37 bitrate=2532.4kbits/s speed=0.0797x    frame=  204 fps=3.0 q=53.0 size=    1662kB time=00:00:05.45 bitrate=2493.9kbits/s speed=0.0801x    frame=  205 fps=3.0 q=53.0 size=    1662kB time=00:00:05.50 bitrate=2474.9kbits/s speed=0.0799x    frame=  207 fps=3.0 q=53.0 size=    1662kB time=00:00:05.58 bitrate=2438.1kbits/s speed=0.0805x    frame=  210 fps=3.0 q=53.0 size=    1662kB time=00:00:05.70 bitrate=2384.7kbits/s speed=0.0815x    frame=  211 fps=3.0 q=53.0 size=    1662kB time=00:00:05.75 bitrate=2367.3kbits/s speed=0.0813x    frame=  214 fps=3.0 q=53.0 size=    1662kB time=00:00:05.87 bitrate=2316.9kbits/s speed=0.0824x    frame=  217 fps=3.0 q=53.0 size=    1662kB time=00:00:06.00 bitrate=2268.7kbits/s speed=0.0831x    frame=  220 fps=3.0 q=53.0 size=    1662kB time=00:00:06.12 bitrate=2222.4kbits/s speed=0.0839x    frame=  221 fps=3.0 q=53.0 size=    1662kB time=00:00:06.16 bitrate=2207.2kbits/s speed=0.0838x    frame=  224 fps=3.0 q=53.0 size=    1662kB time=00:00:06.29 bitrate=2163.4kbits/s speed=0.0848x    frame=  228 fps=3.0 q=53.0 size=    1662kB time=00:00:06.45 bitrate=2107.8kbits/s speed=0.0847x    frame=  232 fps=3.0 q=53.0 size=    1662kB time=00:00:06.62 bitrate=2054.7kbits/s speed=0.0861x    frame=  234 fps=3.0 q=53.0 size=    1662kB time=00:00:06.70 bitrate=2029.3kbits/s speed=0.0855x    frame=  237 fps=3.0 q=53.0 size=    1662kB time=00:00:06.83 bitrate=1992.1kbits/s speed=0.0864x    frame=  239 fps=3.0 q=53.0 size=    1662kB time=00:00:06.91 bitrate=1967.9kbits/s speed=0.0867x    frame=  240 fps=3.0 q=53.0 size=    1662kB time=00:00:06.95 bitrate=1956.4kbits/s speed=0.0866x    frame=  241 fps=3.0 q=53.0 size=    1662kB time=00:00:07.00 bitrate=1944.6kbits/s speed=0.0865x    frame=  242 fps=3.0 q=53.0 size=    1662kB time=00:00:07.04 bitrate=1933.0kbits/s speed=0.0865x    frame=  244 fps=3.0 q=53.0 size=    1662kB time=00:00:07.12 bitrate=1910.5kbits/s speed=0.0868x    frame=  246 fps=3.0 q=53.0 size=    1662kB time=00:00:07.20 bitrate=1888.5kbits/s speed=0.0869x    frame=  248 fps=3.0 q=53.0 size=    1662kB time=00:00:07.29 bitrate=1866.8kbits/s speed=0.0873x    frame=  250 fps=3.0 q=53.0 size=    1662kB time=00:00:07.37 bitrate=1845.7kbits/s speed=0.0875x    frame=  252 fps=3.0 q=53.0 size=    1662kB time=00:00:07.45 bitrate=1825.2kbits/s speed=0.0879x    frame=  257 fps=3.0 q=53.0 size=    2521kB time=00:00:07.66 bitrate=2692.9kbits/s speed=0.0898x    frame=  261 fps=3.0 q=53.0 size=    2521kB time=00:00:07.83 bitrate=2635.8kbits/s speed=0.0912x    frame=  265 fps=3.1 q=53.0 size=    2521kB time=00:00:08.00 bitrate=2580.8kbits/s speed=0.0922x    frame=  266 fps=3.0 q=53.0 size=    2521kB time=00:00:08.04 bitrate=2567.3kbits/s speed=0.0921x    frame=  268 fps=3.0 q=53.0 size=    2521kB time=00:00:08.12 bitrate=2541.1kbits/s speed=0.0921x    frame=  269 fps=3.0 q=53.0 size=    2521kB time=00:00:08.16 bitrate=2528.1kbits/s speed=0.092x    frame=  271 fps=3.0 q=53.0 size=    2521kB time=00:00:08.25 bitrate=2502.6kbits/s speed=0.0924x    frame=  272 fps=3.0 q=53.0 size=    2521kB time=00:00:08.29 bitrate=2489.9kbits/s speed=0.0922x    frame=  275 fps=3.0 q=53.0 size=    2521kB time=00:00:08.41 bitrate=2453.0kbits/s speed=0.0929x    frame=  276 fps=3.0 q=53.0 size=    2521kB time=00:00:08.45 bitrate=2441.1kbits/s speed=0.0927x    frame=  279 fps=3.0 q=53.0 size=    2521kB time=00:00:08.58 bitrate=2405.5kbits/s speed=0.093x    frame=  283 fps=3.1 q=53.0 size=    2521kB time=00:00:08.75 bitrate=2359.6kbits/s speed=0.0943x    frame=  286 fps=3.1 q=53.0 size=    2521kB time=00:00:08.87 bitrate=2326.4kbits/s speed=0.095x    frame=  287 fps=3.0 q=53.0 size=    2521kB time=00:00:08.91 bitrate=2315.4kbits/s speed=0.0947x    frame=  291 fps=3.1 q=52.0 size=    2521kB time=00:00:09.08 bitrate=2273.1kbits/s speed=0.0959x    frame=  293 fps=3.1 q=52.0 size=    2521kB time=00:00:09.16 bitrate=2252.3kbits/s speed=0.0962x    frame=  294 fps=3.1 q=52.0 size=    2521kB time=00:00:09.20 bitrate=2242.3kbits/s speed=0.0961x    frame=  298 fps=3.1 q=52.0 size=    2521kB time=00:00:09.37 bitrate=2202.3kbits/s speed=0.0973x    frame=  301 fps=3.1 q=52.0 size=    2521kB time=00:00:09.50 bitrate=2173.4kbits/s speed=0.0976x    frame=  306 fps=3.1 q=52.0 size=    2521kB time=00:00:09.70 bitrate=2126.8kbits/s speed=0.0993x    frame=  307 fps=3.1 q=52.0 size=    2521kB time=00:00:09.75 bitrate=2117.6kbits/s speed=0.0991x    frame=  311 fps=3.1 q=52.0 size=    2521kB time=00:00:09.91 bitrate=2082.0kbits/s speed=0.0997x    frame=  317 fps=3.2 q=51.0 size=    2521kB time=00:00:10.16 bitrate=2030.8kbits/s speed=0.101x    frame=  320 fps=3.2 q=51.0 size=    2521kB time=00:00:10.29 bitrate=2006.1kbits/s speed=0.101x    frame=  324 fps=3.2 q=51.0 size=    2521kB time=00:00:10.45 bitrate=1974.3kbits/s speed=0.102x    frame=  326 fps=3.2 q=51.0 size=    2521kB time=00:00:10.54 bitrate=1958.6kbits/s speed=0.103x    frame=  329 fps=3.2 q=51.0 size=    2521kB time=00:00:10.66 bitrate=1935.6kbits/s speed=0.103x    frame=  334 fps=3.2 q=51.0 size=    2521kB time=00:00:10.87 bitrate=1898.6kbits/s speed=0.105x    frame=  340 fps=3.3 q=51.0 size=    3241kB time=00:00:11.12 bitrate=2386.0kbits/s speed=0.106x    frame=  345 fps=3.3 q=51.0 size=    3241kB time=00:00:11.33 bitrate=2342.2kbits/s speed=0.108x    frame=  348 fps=3.3 q=50.0 size=    3241kB time=00:00:11.45 bitrate=2316.6kbits/s speed=0.108x    frame=  352 fps=3.3 q=50.0 size=    3241kB time=00:00:11.62 bitrate=2283.4kbits/s speed=0.109x    frame=  355 fps=3.3 q=50.0 size=    3241kB time=00:00:11.75 bitrate=2259.1kbits/s speed=0.11x    frame=  359 fps=3.3 q=50.0 size=    3241kB time=00:00:11.91 bitrate=2227.4kbits/s speed=0.111x    frame=  363 fps=3.4 q=50.0 size=    3241kB time=00:00:12.08 bitrate=2196.8kbits/s speed=0.112x    frame=  367 fps=3.4 q=50.0 size=    3241kB time=00:00:12.25 bitrate=2166.9kbits/s speed=0.113x    frame=  371 fps=3.4 q=50.0 size=    3241kB time=00:00:12.41 bitrate=2137.7kbits/s speed=0.113x    frame=  377 fps=3.4 q=49.0 size=    3241kB time=00:00:12.66 bitrate=2095.5kbits/s speed=0.115x    frame=  382 fps=3.5 q=49.0 size=    3241kB time=00:00:12.87 bitrate=2061.7kbits/s speed=0.116x    frame=  386 fps=3.5 q=49.0 size=    3241kB time=00:00:13.04 bitrate=2035.3kbits/s speed=0.117x    frame=  390 fps=3.5 q=48.0 size=    3241kB time=00:00:13.20 bitrate=2009.7kbits/s speed=0.118x    frame=  395 fps=3.5 q=48.0 size=    3241kB time=00:00:13.41 bitrate=1978.4kbits/s speed=0.119x    frame=  397 fps=3.5 q=48.0 size=    3241kB time=00:00:13.50 bitrate=1966.2kbits/s speed=0.12x    frame=  402 fps=3.5 q=48.0 size=    3241kB time=00:00:13.70 bitrate=1936.4kbits/s speed=0.121x    frame=  406 fps=3.6 q=48.0 size=    3241kB time=00:00:13.87 bitrate=1913.1kbits/s speed=0.122x    frame=  410 fps=3.6 q=47.0 size=    3241kB time=00:00:14.04 bitrate=1890.4kbits/s speed=0.123x    frame=  413 fps=3.6 q=47.0 size=    3241kB time=00:00:14.16 bitrate=1873.7kbits/s speed=0.123x    frame=  417 fps=3.6 q=47.0 size=    3241kB time=00:00:14.33 bitrate=1852.0kbits/s speed=0.124x    frame=  420 fps=3.6 q=47.0 size=    3241kB time=00:00:14.45 bitrate=1836.0kbits/s speed=0.125x    frame=  426 fps=3.7 q=47.0 size=    3241kB time=00:00:14.70 bitrate=1804.8kbits/s speed=0.126x    frame=  428 fps=3.7 q=45.0 size=    3241kB time=00:00:14.79 bitrate=1794.5kbits/s speed=0.126x    frame=  435 fps=3.7 q=46.0 size=    3813kB time=00:00:15.08 bitrate=2070.8kbits/s speed=0.128x    frame=  439 fps=3.7 q=46.0 size=    3813kB time=00:00:15.25 bitrate=2048.1kbits/s speed=0.129x    frame=  444 fps=3.7 q=46.0 size=    3813kB time=00:00:15.45 bitrate=2020.5kbits/s speed=0.13x    frame=  448 fps=3.7 q=46.0 size=    3813kB time=00:00:15.62 bitrate=1998.9kbits/s speed=0.13x    frame=  450 fps=3.7 q=46.0 size=    3813kB time=00:00:15.70 bitrate=1988.4kbits/s speed=0.13x    frame=  456 fps=3.7 q=46.0 size=    3813kB time=00:00:15.95 bitrate=1957.2kbits/s speed=0.131x    frame=  458 fps=3.8 q=46.0 size=    3813kB time=00:00:16.04 bitrate=1947.0kbits/s speed=0.131x    frame=  462 fps=3.8 q=45.0 size=    3813kB time=00:00:16.20 bitrate=1927.0kbits/s speed=0.132x    frame=  466 fps=3.8 q=45.0 size=    3813kB time=00:00:16.37 bitrate=1907.4kbits/s speed=0.132x    frame=  468 fps=3.8 q=45.0 size=    3813kB time=00:00:16.45 bitrate=1897.8kbits/s speed=0.132x    frame=  471 fps=3.8 q=46.0 size=    3813kB time=00:00:16.58 bitrate=1883.5kbits/s speed=0.132x    frame=  477 fps=3.8 q=46.0 size=    3813kB time=00:00:16.83 bitrate=1855.5kbits/s speed=0.133x    frame=  481 fps=3.8 q=45.0 size=    3813kB time=00:00:17.00 bitrate=1837.3kbits/s speed=0.134x    frame=  484 fps=3.8 q=43.0 size=    3813kB time=00:00:17.12 bitrate=1823.9kbits/s speed=0.134x    frame=  490 fps=3.8 q=45.0 size=    4372kB time=00:00:17.37 bitrate=2061.3kbits/s speed=0.135x    frame=  494 fps=3.8 q=45.0 size=    4372kB time=00:00:17.54 bitrate=2041.7kbits/s speed=0.136x    frame=  498 fps=3.8 q=45.0 size=    4372kB time=00:00:17.70 bitrate=2022.6kbits/s speed=0.136x    frame=  500 fps=3.6 q=-1.0 Lsize=    5106kB time=00:00:20.70 bitrate=2019.8kbits/s speed=0.147x    
video:5102kB audio:0kB subtitle:0kB other streams:0kB global headers:0kB muxing overhead: 0.086601%
bench: utime=477.264s
bench: maxrss=2147124kB
[libx264 @ 0x3ffb1c0] frame I:6     Avg QP:39.36  size: 42742
[libx264 @ 0x3ffb1c0] frame P:273   Avg QP:46.18  size: 13263
[libx264 @ 0x3ffb1c0] frame B:221   Avg QP:45.05  size:  6091
[libx264 @ 0x3ffb1c0] consecutive B-frames: 35.2% 11.6% 18.0% 35.2%
[libx264 @ 0x3ffb1c0] mb I  I16..4: 20.6% 79.0%  0.4%
[libx264 @ 0x3ffb1c0] mb P  I16..4:  6.5% 37.9%  0.0%  P16..4:  7.0%  0.1%  0.2%  0.0%  0.0%    skip:48.2%
[libx264 @ 0x3ffb1c0] mb B  I16..4:  0.6%  1.0%  0.0%  B16..8: 16.7%  0.3%  0.0%  direct: 0.2%  skip:81.2%  L0:41.1% L1:58.6% BI: 0.4%
[libx264 @ 0x3ffb1c0] final ratefactor: 43.00
[libx264 @ 0x3ffb1c0] 8x8 transform intra:84.4% inter:94.6%
[libx264 @ 0x3ffb1c0] direct mvs  spatial:99.1% temporal:0.9%
[libx264 @ 0x3ffb1c0] coded y,uvDC,uvAC intra: 4.7% 12.9% 0.1% inter: 0.4% 0.7% 0.0%
[libx264 @ 0x3ffb1c0] i16 v,h,dc,p: 35% 37%  5% 24%
[libx264 @ 0x3ffb1c0] i8 v,h,dc,ddl,ddr,vr,hd,vl,hu: 21%  6% 71%  0%  0%  0%  0%  0%  0%
[libx264 @ 0x3ffb1c0] i4 v,h,dc,ddl,ddr,vr,hd,vl,hu: 18% 14% 11% 12% 12%  8% 10%  5% 10%
[libx264 @ 0x3ffb1c0] i8c dc,h,v,p: 96%  2%  1%  0%
[libx264 @ 0x3ffb1c0] Weighted P-Frames: Y:1.1% UV:0.7%
[libx264 @ 0x3ffb1c0] ref P L0: 49.9%  3.8% 20.4%  6.5%  5.5%  4.6%  5.4%  2.7%  1.2%  0.0%
[libx264 @ 0x3ffb1c0] ref B L0: 81.3%  8.7%  5.1%  1.9%  1.5%  1.1%  0.4%
[libx264 @ 0x3ffb1c0] ref B L1: 97.7%  2.3%
[libx264 @ 0x3ffb1c0] kb/s:2005.74
